# xmcd
#
# Track frame offsets:
#	150
#	14630
#	27165
#	41638
#	57840
#	69158
#	83145
#	94105
#	107483
#	121180
#	136825
#	149510
#
# Disc length: 2204 seconds
#
# Revision: 12
# Processed by: cddbd v1.5.2PL0 Copyright (c) Steve Scherf et al.
# Submitted via: EasyCDDAExtractor 15.3.0.1
#
DISCID=9a089a0c
DTITLE=Alejandro Fernandez - Que Seas Muy Feliz
DYEAR=1995
DGENRE=Latin
TTITLE0=Que Bueno
TTITLE1=Que Sera De Mi
TTITLE2=Llorando Penas
TTITLE3=Como Quien Pierde Una Estrella
TTITLE4=Ojo Por Ojo
TTITLE5=Paso Del Norte
TTITLE6=Uno Mas
TTITLE7=Y Despues
TTITLE8=Me Recordaras Llorando
TTITLE9=La Mitad Que Me Faltaba
TTITLE10=Que Seas Muy Feliz
TTITLE11=El Potrillo
EXTD=
EXTT0=
EXTT1=
EXTT2=
EXTT3=
EXTT4=
EXTT5=
EXTT6=
EXTT7=
EXTT8=
EXTT9=
EXTT10=
EXTT11=
PLAYORDER=
